PathFileType	4	(X/Y/Z)	/home/nbianco/projects/addbio/data/HamnerRunning2013/Processed/subject17//results/MarkerData/run400.trc
DataRate	CameraRate	NumFrames	NumMarkers	Units	OrigDataRate	OrigDataStartFrame	OrigNumFrames
120.005	120.005	9	41	m	120.005	94	252
Frame#	Time	C7			CLAV			LACR			LASI			LCAL			LFAradius			LFAsuperior			LFAulna			LLEL			LMEL			LMT5			LPSI			LTB1			LTB2			LTB3			LTH1			LTH2			LTH3			LTOE			LUA1			LUA2			LUA3			RACR			RASI			RCAL			RFAradius			RFAsuperior			RFAulna			RLEL			RMEL			RMT5			RPSI			RTB1			RTB2			RTB3			RTH1			RTH3			RTOE			RUA1			RUA2			RUA3		
		X1	Y1	Z1	X2	Y2	Z2	X3	Y3	Z3	X4	Y4	Z4	X5	Y5	Z5	X6	Y6	Z6	X7	Y7	Z7	X8	Y8	Z8	X9	Y9	Z9	X10	Y10	Z10	X11	Y11	Z11	X12	Y12	Z12	X13	Y13	Z13	X14	Y14	Z14	X15	Y15	Z15	X16	Y16	Z16	X17	Y17	Z17	X18	Y18	Z18	X19	Y19	Z19	X20	Y20	Z20	X21	Y21	Z21	X22	Y22	Z22	X23	Y23	Z23	X24	Y24	Z24	X25	Y25	Z25	X26	Y26	Z26	X27	Y27	Z27	X28	Y28	Z28	X29	Y29	Z29	X30	Y30	Z30	X31	Y31	Z31	X32	Y32	Z32	X33	Y33	Z33	X34	Y34	Z34	X35	Y35	Z35	X36	Y36	Z36	X37	Y37	Z37	X38	Y38	Z38	X39	Y39	Z39	X40	Y40	Z40	X41	Y41	Z41

95	1.125	0.879491	1.47366	-0.311472	0.993975	1.40777	-0.256154	0.972358	1.42635	-0.484097	0.960561	0.953586	-0.428055	0.553563	0.636596	-0.372761	0.984904	1.06519	-0.450316	0.924968	1.09161	-0.561825	0.988916	1.02001	-0.502527	0.832451	1.16757	-0.61587	0.773959	1.1733	-0.549115	0.453864	0.47989	-0.462192	0.795269	0.993757	-0.378084	0.801203	0.431833	-0.400965	0.740391	0.502313	-0.467362	0.64539	0.49878	-0.392743	0.916922	0.765261	-0.494093	0.965129	0.655659	-0.484768	0.898472	0.54886	-0.474833	0.461542	0.449837	-0.375263	0.906895	1.31215	-0.558043	0.832297	1.28231	-0.567196	0.887856	1.22353	-0.577618	0.898124	1.40645	-0.0933777	0.937182	0.957765	-0.198074	0.853153	0.104146	-0.32558	0.839773	0.988722	-0.0933484	0.775156	1.07319	-0.0310668	0.798076	0.952523	-0.0495718	0.696169	1.17353	-0.0207839	0.671589	1.16167	-0.0985529	1.03788	0.0623407	-0.255437	0.774998	0.998054	-0.279969	1.05163	0.353412	-0.302793	1.00769	0.297274	-0.238572	1.00352	0.238233	-0.313367	0.901068	0.797929	-0.142125	0.995602	0.562328	-0.20912	1.058	0.071212	-0.351667	0.810275	1.28734	-0.0555191	0.741292	1.30237	-0.0810308	0.747051	1.22372	-0.0348217
96	1.13333	0.879693	1.47042	-0.31029	0.994705	1.40332	-0.257625	0.969143	1.42253	-0.484917	0.956506	0.949061	-0.428342	0.574192	0.631814	-0.376633	0.974497	1.05131	-0.457083	0.91348	1.08353	-0.565096	0.974703	1.00687	-0.510277	0.822867	1.16537	-0.614589	0.766632	1.17096	-0.54691	0.481746	0.469775	-0.464332	0.792046	0.991019	-0.378726	0.826755	0.429082	-0.402488	0.765426	0.497895	-0.470211	0.670529	0.493917	-0.395384	0.92075	0.763285	-0.494273	0.97782	0.657358	-0.486211	0.917515	0.547097	-0.477123	0.48903	0.442109	-0.376739	0.900427	1.30943	-0.557642	0.825058	1.28002	-0.563701	0.880094	1.22145	-0.577448	0.902961	1.40048	-0.0924779	0.933462	0.95467	-0.197028	0.820624	0.10488	-0.325397	0.85805	0.982962	-0.0959414	0.792804	1.06328	-0.0305417	0.819457	0.944601	-0.0507765	0.710471	1.16027	-0.0163005	0.681828	1.14827	-0.0924436	1.00483	0.0618628	-0.255133	0.772115	0.995239	-0.280963	1.03346	0.345738	-0.301184	0.985079	0.292288	-0.237685	0.978698	0.233737	-0.312747	0.893871	0.793866	-0.141737	0.984916	0.556408	-0.208963	1.02489	0.0704244	-0.351156	0.819744	1.2782	-0.0544042	0.749225	1.29195	-0.0763704	0.758888	1.21257	-0.0321025
97	1.14167	0.879523	1.46798	-0.309362	0.995388	1.39997	-0.259202	0.965818	1.41985	-0.485637	0.952647	0.946349	-0.428571	0.592484	0.624786	-0.380208	0.963252	1.03953	-0.464003	0.901657	1.07772	-0.568358	0.95944	0.996023	-0.517989	0.813286	1.16517	-0.613586	0.759541	1.17044	-0.545058	0.509828	0.45663	-0.466162	0.789157	0.989533	-0.378562	0.853296	0.427801	-0.403935	0.790271	0.494009	-0.472401	0.695494	0.488479	-0.397505	0.923514	0.762679	-0.49439	0.990563	0.661455	-0.4873	0.937299	0.547828	-0.478619	0.517469	0.431206	-0.37816	0.894096	1.30791	-0.557389	0.818155	1.27968	-0.560082	0.872364	1.22101	-0.577494	0.907617	1.39661	-0.0921463	0.930334	0.952286	-0.196585	0.78795	0.105533	-0.325221	0.877153	0.979965	-0.0991643	0.811088	1.05624	-0.0310146	0.841868	0.939366	-0.0529172	0.725201	1.14941	-0.0127146	0.693335	1.13699	-0.0875891	0.971683	0.0612393	-0.255081	0.769532	0.993678	-0.281106	1.01303	0.33692	-0.299572	0.960333	0.285624	-0.237692	0.951866	0.228393	-0.31231	0.88643	0.790419	-0.141754	0.970916	0.550242	-0.209662	0.991886	0.0694659	-0.350898	0.828768	1.2717	-0.0533722	0.757228	1.28367	-0.0732337	0.770992	1.20389	-0.0299982
98	1.15	0.879106	1.46651	-0.308571	0.996089	1.39786	-0.26085	0.96223	1.41827	-0.486327	0.949092	0.945471	-0.428709	0.608525	0.615326	-0.38345	0.951243	1.03049	-0.470672	0.88931	1.07424	-0.571732	0.943518	0.988064	-0.525322	0.803522	1.16689	-0.613014	0.752314	1.17191	-0.543618	0.538042	0.440943	-0.467754	0.786427	0.988869	-0.377535	0.88039	0.428482	-0.405014	0.814477	0.490861	-0.473791	0.71981	0.482742	-0.398999	0.925129	0.763346	-0.494384	1.00275	0.667818	-0.487942	0.957261	0.551281	-0.479501	0.546731	0.417427	-0.379537	0.887689	1.30761	-0.557336	0.811389	1.28101	-0.556992	0.864371	1.22176	-0.577664	0.911934	1.39482	-0.0921092	0.927784	0.950421	-0.196952	0.755309	0.106347	-0.325121	0.89661	0.980101	-0.103005	0.829323	1.0523	-0.0324597	0.864701	0.937203	-0.0561573	0.739792	1.14118	-0.0100377	0.705996	1.12815	-0.0841039	0.938476	0.0608465	-0.255089	0.767142	0.993052	-0.280331	0.990486	0.328511	-0.298894	0.934827	0.27872	-0.238655	0.923645	0.223347	-0.31212	0.879708	0.788156	-0.14182	0.955191	0.54469	-0.21049	0.958963	0.0687557	-0.350773	0.837134	1.26771	-0.0522898	0.764876	1.27723	-0.0711367	0.782893	1.1976	-0.0284041
99	1.15833	0.878633	1.46622	-0.307836	0.996782	1.39711	-0.262577	0.958356	1.41772	-0.486969	0.945987	0.946232	-0.42892	0.622658	0.60324	-0.386324	0.938598	1.0247	-0.476801	0.876304	1.07304	-0.575209	0.927465	0.983416	-0.531977	0.793428	1.17036	-0.612892	0.744604	1.17534	-0.5426	0.566475	0.423139	-0.4691	0.783902	0.988923	-0.375888	0.907352	0.431365	-0.405397	0.837791	0.488642	-0.474345	0.743354	0.476732	-0.399863	0.925955	0.765261	-0.49422	1.01391	0.676379	-0.488073	0.97669	0.557649	-0.479969	0.57672	0.401188	-0.380765	0.881073	1.30868	-0.557437	0.804537	1.28377	-0.554887	0.856006	1.22359	-0.577973	0.915914	1.39487	-0.0921773	0.925706	0.949191	-0.197853	0.722689	0.107378	-0.325037	0.915886	0.983499	-0.107418	0.846926	1.05131	-0.0347226	0.887288	0.938225	-0.0605616	0.753796	1.13551	-0.00820586	0.719239	1.12175	-0.0818075	0.905205	0.0607724	-0.255	0.764937	0.993255	-0.278829	0.966094	0.321699	-0.299275	0.909016	0.272984	-0.240059	0.894642	0.21939	-0.311958	0.874397	0.787301	-0.14168	0.93908	0.540278	-0.210834	0.926003	0.0684658	-0.350608	0.844877	1.26586	-0.0512687	0.771992	1.27234	-0.0695009	0.79421	1.19355	-0.0272454
100	1.16667	0.87818	1.46714	-0.307176	0.99738	1.39775	-0.264424	0.954273	1.41823	-0.487554	0.943502	0.948344	-0.429356	0.635427	0.588424	-0.388737	0.925588	1.02239	-0.482211	0.862801	1.07414	-0.578608	0.911859	0.982279	-0.537782	0.782994	1.17537	-0.613086	0.736275	1.18056	-0.541951	0.595356	0.403605	-0.470091	0.781834	0.989873	-0.373991	0.933432	0.436234	-0.404868	0.860105	0.487425	-0.474148	0.766389	0.470287	-0.400183	0.926621	0.768462	-0.493872	1.02374	0.686912	-0.487757	0.994906	0.566735	-0.480075	0.607489	0.383002	-0.381701	0.874251	1.31124	-0.557633	0.797493	1.28785	-0.553831	0.847326	1.22666	-0.578477	0.919701	1.39647	-0.0923348	0.923883	0.948958	-0.198755	0.689909	0.108536	-0.324877	0.934485	0.990032	-0.112273	0.863552	1.0529	-0.0375362	0.909055	0.942264	-0.0660243	0.766964	1.1321	-0.00710904	0.732214	1.1176	-0.0803627	0.8718	0.0608523	-0.254804	0.762879	0.994476	-0.276846	0.940206	0.316912	-0.300193	0.8826	0.26921	-0.241248	0.865205	0.216769	-0.311622	0.870546	0.787527	-0.14142	0.922947	0.537111	-0.210643	0.892848	0.0684807	-0.35032	0.85218	1.26579	-0.0505381	0.77867	1.26906	-0.0679677	0.80473	1.19159	-0.0264643
101	1.175	0.87768	1.46911	-0.306681	0.997801	1.39975	-0.266433	0.950079	1.4199	-0.488149	0.941774	0.951564	-0.430009	0.647503	0.570928	-0.39054	0.912641	1.02342	-0.486776	0.849316	1.07772	-0.581642	0.897201	0.98455	-0.542694	0.772368	1.18185	-0.613365	0.727447	1.1874	-0.541525	0.625022	0.382761	-0.47059	0.780493	0.991928	-0.372123	0.958126	0.442461	-0.403411	0.881347	0.487073	-0.473352	0.78927	0.463242	-0.400072	0.927718	0.773022	-0.493335	1.03213	0.698914	-0.487167	1.01147	0.577859	-0.479726	0.639275	0.363467	-0.382234	0.867332	1.31535	-0.557896	0.790316	1.29336	-0.553543	0.838469	1.23123	-0.579171	0.923456	1.39937	-0.0926881	0.922182	0.950031	-0.199233	0.656774	0.109778	-0.324573	0.952003	0.99936	-0.117372	0.87908	1.05674	-0.0406081	0.9296	0.948999	-0.0722466	0.779235	1.13065	-0.00659768	0.744149	1.11551	-0.0794336	0.838187	0.0608883	-0.254592	0.760977	0.996944	-0.274547	0.913111	0.314006	-0.30103	0.855094	0.267503	-0.241848	0.835392	0.215428	-0.311143	0.867712	0.788242	-0.141414	0.906273	0.535127	-0.210386	0.859369	0.068628	-0.349943	0.859232	1.26717	-0.0502579	0.785146	1.26764	-0.0664786	0.814433	1.19154	-0.0259933
102	1.18333	0.877026	1.47192	-0.306424	0.998017	1.40301	-0.268623	0.94583	1.42285	-0.48885	0.940842	0.955738	-0.430724	0.659596	0.550944	-0.391582	0.900251	1.0274	-0.490424	0.836511	1.08386	-0.584052	0.883797	0.989813	-0.546715	0.761804	1.18976	-0.613486	0.718405	1.19574	-0.541079	0.655849	0.36111	-0.470532	0.780003	0.995128	-0.370355	0.981316	0.449265	-0.401234	0.901437	0.487255	-0.472095	0.812082	0.455569	-0.399614	0.929565	0.778987	-0.492686	1.03917	0.711713	-0.486468	1.02627	0.590134	-0.47883	0.67238	0.343265	-0.382299	0.860463	1.32096	-0.558224	0.783175	1.30036	-0.553604	0.829598	1.2374	-0.579938	0.927241	1.40339	-0.0933472	0.920946	0.952337	-0.199225	0.623296	0.111345	-0.32406	0.968112	1.01099	-0.12254	0.893482	1.06256	-0.0437307	0.948687	0.958097	-0.0788054	0.790657	1.13095	-0.00648446	0.754682	1.1153	-0.0787846	0.804378	0.0608131	-0.254463	0.759615	1.00058	-0.272047	0.884991	0.312707	-0.301495	0.826295	0.267616	-0.241915	0.80515	0.215341	-0.310788	0.865398	0.789073	-0.142064	0.888307	0.53439	-0.21066	0.825579	0.0688587	-0.349578	0.866145	1.26979	-0.0504239	0.79163	1.26824	-0.0651332	0.823455	1.19321	-0.0257517
103	1.19167	0.876186	1.47543	-0.306412	0.998041	1.40738	-0.270995	0.941525	1.42711	-0.489688	0.940652	0.960774	-0.431306	0.672395	0.528739	-0.391775	0.888826	1.03383	-0.493169	0.824875	1.09239	-0.585701	0.871706	0.997439	-0.549837	0.751565	1.19899	-0.613285	0.709453	1.20546	-0.540341	0.688175	0.33921	-0.469961	0.780313	0.999328	-0.368571	1.00314	0.456018	-0.398721	0.920343	0.487534	-0.470459	0.834562	0.44734	-0.398857	0.932203	0.7863	-0.492093	1.04518	0.724727	-0.485722	1.03944	0.602842	-0.477428	0.706993	0.323125	-0.38187	0.853771	1.32795	-0.558594	0.776266	1.30881	-0.553658	0.820896	1.24504	-0.580603	0.930993	1.40844	-0.0943482	0.921194	0.95532	-0.199017	0.589852	0.113878	-0.323236	0.982554	1.02434	-0.127689	0.90672	1.07018	-0.046826	0.966185	0.969259	-0.0852983	0.801313	1.13287	-0.00657169	0.763997	1.1168	-0.0783038	0.77052	0.0606973	-0.254461	0.759762	1.00486	-0.269522	0.856046	0.312942	-0.30167	0.796429	0.269364	-0.241768	0.774571	0.216669	-0.31086	0.863354	0.790134	-0.143503	0.868772	0.535183	-0.211781	0.791713	0.0692322	-0.349322	0.872926	1.27352	-0.0509062	0.798171	1.27072	-0.0639992	0.831986	1.19634	-0.0256639
